<svg width="15" height="8" viewBox="0 0 15 8" fill="none" xmlns="http://www.w3.org/2000/svg">
<path d="M7.84423 7.85077L14.8582 0.838221C14.9549 0.742985 15 0.619396 15 0.494354C15 0.369312 14.9549 0.244269 14.8582 0.150487L14.8495 0.141763C14.7586 0.0494355 14.6351 0 14.5064 0H11.1026C10.9717 0 10.8496 0.0494355 10.7587 0.141763L7.50182 3.39795L4.2449 0.141763C4.15184 0.0494355 4.02753 0 3.90103 0H0.497262C0.364949 0 0.243542 0.0494355 0.151941 0.141763L0.14249 0.150487C0.0494354 0.239907 0 0.366404 0 0.494354C0 0.622304 0.0494354 0.747347 0.14249 0.838221L7.1565 7.85077C7.34842 8.04197 7.65521 8.04197 7.84423 7.85077Z" fill="white"/>
<path d="M3 1L11.7239 1" stroke="white" stroke-width="2"/>
<path d="M6.62253 1.75061C6.62618 1.93344 6.65784 2.07601 6.79263 2.21232C6.99268 2.41462 7.36127 2.35909 7.61581 2.34901C7.90003 2.33776 8.48072 2.25694 8.66074 2.0088C8.75006 1.88568 8.68822 1.76023 8.53772 1.78099C8.48075 1.78884 7.94621 1.92858 8.18232 2.00729C8.52888 2.12281 9.63964 1.91464 9.27433 1.91464" stroke="white" stroke-width="3" stroke-linecap="round"/>
</svg>
