<svg width="32" height="32" viewBox="0 0 32 32" fill="none" xmlns="http://www.w3.org/2000/svg">
<path d="M19.45 4.11001C19.2902 4.03552 19.1135 4.00461 18.9379 4.02041C18.7623 4.03622 18.594 4.09818 18.45 4.20001L10.67 10H3C2.73478 10 2.48043 10.1054 2.29289 10.2929C2.10536 10.4804 2 10.7348 2 11V21C2 21.2652 2.10536 21.5196 2.29289 21.7071C2.48043 21.8947 2.73478 22 3 22H10.67L18.4 27.8C18.5486 27.9114 18.7252 27.9793 18.9102 27.996C19.0952 28.0127 19.2811 27.9775 19.4472 27.8944C19.6133 27.8114 19.753 27.6837 19.8507 27.5257C19.9483 27.3678 20 27.1857 20 27V5.00001C19.9994 4.81535 19.9478 4.63444 19.8507 4.47735C19.7536 4.32026 19.6149 4.19311 19.45 4.11001V4.11001Z" fill="#F6F6F6"/>
<path d="M22.9173 11.6692C22.674 11.6692 22.4407 11.7658 22.2687 11.9378C22.0966 12.1099 22 12.3432 22 12.5865V18.0902C22 18.3335 22.0966 18.5668 22.2687 18.7388C22.4407 18.9109 22.674 19.0075 22.9173 19.0075C23.1606 19.0075 23.3939 18.9109 23.5659 18.7388C23.7379 18.5668 23.8346 18.3335 23.8346 18.0902V12.5865C23.8346 12.3432 23.7379 12.1099 23.5659 11.9378C23.3939 11.7658 23.1606 11.6692 22.9173 11.6692Z" fill="#F6F6F6"/>
<path d="M25.6691 9.83456C25.4258 9.83456 25.1925 9.93121 25.0205 10.1032C24.8485 10.2753 24.7518 10.5086 24.7518 10.7519V19.9248C24.7518 20.1681 24.8485 20.4014 25.0205 20.5734C25.1925 20.7454 25.4258 20.8421 25.6691 20.8421C25.9124 20.8421 26.1457 20.7454 26.3177 20.5734C26.4898 20.4014 26.5864 20.1681 26.5864 19.9248V10.7519C26.5864 10.5086 26.4898 10.2753 26.3177 10.1032C26.1457 9.93121 25.9124 9.83456 25.6691 9.83456Z" fill="#F6F6F6"/>
<path d="M28.421 8C28.1777 8 27.9444 8.09664 27.7724 8.26867C27.6004 8.44069 27.5037 8.67401 27.5037 8.91729V21.7594C27.5037 22.0027 27.6004 22.236 27.7724 22.408C27.9444 22.58 28.1777 22.6767 28.421 22.6767C28.6643 22.6767 28.8976 22.58 29.0696 22.408C29.2417 22.236 29.3383 22.0027 29.3383 21.7594V8.91729C29.3383 8.67401 29.2417 8.44069 29.0696 8.26867C28.8976 8.09664 28.6643 8 28.421 8Z" fill="#F6F6F6"/>
</svg>
