<svg width="16" height="19" viewBox="0 0 16 19" fill="none" xmlns="http://www.w3.org/2000/svg">
<path d="M14.2 0H12.4C11.4046 0 10.6 0.0592883 10.6 0.741107V18.2589C10.6 18.9407 11.4046 19 12.4 19H14.2C15.1954 19 16 18.9407 16 18.2589V0.741107C16 0.0592883 15.1954 0 14.2 0Z" fill="#F6F6F6"/>
<path d="M14.2 0H12.4C11.4046 0 10.6 0.0592883 10.6 0.741107V18.2589C10.6 18.9407 11.4046 19 12.4 19H14.2C15.1954 19 16 18.9407 16 18.2589V0.741107C16 0.0592883 15.1954 0 14.2 0Z" fill="#F6F6F6"/>
<path d="M3.7 -1.19209e-07H1.9C0.904598 -1.19209e-07 0.0999937 0.0592883 0.0999937 0.741107V18.2589C0.0999937 18.9407 0.904598 19 1.9 19H3.7C4.6954 19 5.5 18.9407 5.5 18.2589V0.741107C5.5 0.0592883 4.6954 -1.19209e-07 3.7 -1.19209e-07Z" fill="#F6F6F6"/>
<path d="M3.7 -1.19209e-07H1.9C0.904598 -1.19209e-07 0.0999937 0.0592883 0.0999937 0.741107V18.2589C0.0999937 18.9407 0.904598 19 1.9 19H3.7C4.6954 19 5.5 18.9407 5.5 18.2589V0.741107C5.5 0.0592883 4.6954 -1.19209e-07 3.7 -1.19209e-07Z" fill="#F6F6F6"/>
</svg>
