<svg width="32" height="32" viewBox="0 0 32 32" fill="none" xmlns="http://www.w3.org/2000/svg">
<path d="M19.45 4.11001C19.2902 4.03552 19.1135 4.00461 18.9379 4.02041C18.7623 4.03622 18.594 4.09818 18.45 4.20001L10.67 10H3C2.73478 10 2.48043 10.1054 2.29289 10.2929C2.10536 10.4804 2 10.7348 2 11V21C2 21.2652 2.10536 21.5196 2.29289 21.7071C2.48043 21.8947 2.73478 22 3 22H10.67L18.4 27.8C18.5486 27.9114 18.7252 27.9793 18.9102 27.996C19.0952 28.0127 19.2811 27.9775 19.4472 27.8944C19.6133 27.8114 19.753 27.6837 19.8507 27.5257C19.9483 27.3678 20 27.1857 20 27V5.00001C19.9994 4.81535 19.9478 4.63444 19.8507 4.47735C19.7536 4.32026 19.6149 4.19311 19.45 4.11001V4.11001Z" fill="#F6F6F6"/>
<path d="M27.41 16L29.7 13.71C29.8638 13.5187 29.9494 13.2727 29.9397 13.021C29.93 12.7693 29.8257 12.5306 29.6476 12.3525C29.4695 12.1744 29.2307 12.07 28.9791 12.0603C28.7274 12.0506 28.4813 12.1362 28.29 12.3L26 14.59L23.71 12.3C23.5187 12.1362 23.2726 12.0506 23.021 12.0603C22.7693 12.07 22.5305 12.1744 22.3524 12.3525C22.1744 12.5306 22.07 12.7693 22.0603 13.021C22.0506 13.2727 22.1362 13.5187 22.3 13.71L24.59 16L22.3 18.29C22.1953 18.3797 22.1103 18.49 22.0503 18.6141C21.9903 18.7381 21.9565 18.8733 21.9512 19.011C21.9459 19.1487 21.9691 19.286 22.0194 19.4144C22.0697 19.5427 22.1459 19.6592 22.2434 19.7567C22.3408 19.8541 22.4574 19.9304 22.5857 19.9807C22.714 20.0309 22.8513 20.0541 22.9891 20.0488C23.1268 20.0435 23.2619 20.0098 23.386 19.9498C23.51 19.8897 23.6204 19.8047 23.71 19.7L26 17.41L28.29 19.7C28.4813 19.8639 28.7274 19.9495 28.9791 19.9397C29.2307 19.93 29.4695 19.8257 29.6476 19.6476C29.8257 19.4695 29.93 19.2308 29.9397 18.9791C29.9494 18.7274 29.8638 18.4813 29.7 18.29L27.41 16Z" fill="#F6F6F6"/>
</svg>
