<svg width="241" height="241" viewBox="0 0 241 241" fill="none" xmlns="http://www.w3.org/2000/svg">
<g clip-path="url(#clip0_258_6)">
<path d="M120 240.017C186.274 240.017 240 186.291 240 120.017C240 53.7427 186.274 0.0168457 120 0.0168457C53.7258 0.0168457 0 53.7427 0 120.017C0 186.291 53.7258 240.017 120 240.017Z" fill="#1977F3"/>
<path d="M167.405 155.357L172.743 120.517H139.327V97.9114C139.327 88.388 143.987 79.0849 158.966 79.0849H174.167V49.4301C174.167 49.4301 160.373 47.0747 147.189 47.0747C119.67 47.0747 101.673 63.7492 101.673 93.9631V120.517H71.0698V155.357H101.673V239.56C107.808 240.525 114.095 241.017 120.5 241.017C126.905 241.017 133.192 240.508 139.327 239.56V155.357H167.405Z" fill="white"/>
</g>
<defs>
<clipPath id="clip0_258_6">
<rect width="241" height="241" fill="white"/>
</clipPath>
</defs>
</svg>
