<svg width="240" height="240" viewBox="0 0 240 240" fill="none" xmlns="http://www.w3.org/2000/svg">
<path d="M120.039 0C69.9403 0 55.2883 0.0516967 52.4402 0.288024C42.159 1.14287 35.7615 2.76208 28.7917 6.23314C23.4204 8.90106 19.1843 11.9936 15.0035 16.3288C7.38959 24.2347 2.77507 33.961 1.10461 45.5226C0.292458 51.1354 0.0561946 52.2801 0.00820359 80.9496C-0.0102545 90.5061 0.00820359 103.083 0.00820359 119.953C0.00820359 170.025 0.0635778 184.666 0.303533 187.509C1.13415 197.516 2.70308 203.812 6.02553 210.699C12.3751 223.882 24.5021 233.778 38.7886 237.471C43.7354 238.745 49.199 239.446 56.213 239.778C59.1848 239.908 89.4744 240 119.783 240C150.091 240 180.399 239.963 183.297 239.815C191.418 239.433 196.134 238.8 201.349 237.452C208.433 235.635 215.035 232.293 220.693 227.659C226.352 223.026 230.932 217.212 234.112 210.625C237.37 203.905 239.022 197.369 239.769 187.884C239.932 185.816 240 152.847 240 119.922C240 86.9908 239.926 54.0821 239.764 52.0143C239.007 42.3765 237.355 35.896 233.992 29.0462C231.232 23.4389 228.168 19.2515 223.72 14.9699C215.783 7.38524 206.074 2.76947 194.503 1.1004C188.897 0.289871 187.78 0.0498504 159.096 0H120.039Z" fill="url(#paint0_radial_258_2)"/>
<path d="M120.039 0C69.9403 0 55.2883 0.0516967 52.4402 0.288024C42.159 1.14287 35.7615 2.76208 28.7917 6.23314C23.4204 8.90106 19.1843 11.9936 15.0035 16.3288C7.38959 24.2347 2.77507 33.961 1.10461 45.5226C0.292458 51.1354 0.0561946 52.2801 0.00820359 80.9496C-0.0102545 90.5061 0.00820359 103.083 0.00820359 119.953C0.00820359 170.025 0.0635778 184.666 0.303533 187.509C1.13415 197.516 2.70308 203.812 6.02553 210.699C12.3751 223.882 24.5021 233.778 38.7886 237.471C43.7354 238.745 49.199 239.446 56.213 239.778C59.1848 239.908 89.4744 240 119.783 240C150.091 240 180.399 239.963 183.297 239.815C191.418 239.433 196.134 238.8 201.349 237.452C208.433 235.635 215.035 232.293 220.693 227.659C226.352 223.026 230.932 217.212 234.112 210.625C237.37 203.905 239.022 197.369 239.769 187.884C239.932 185.816 240 152.847 240 119.922C240 86.9908 239.926 54.0821 239.764 52.0143C239.007 42.3765 237.355 35.896 233.992 29.0462C231.232 23.4389 228.168 19.2515 223.72 14.9699C215.783 7.38524 206.074 2.76947 194.503 1.1004C188.897 0.289871 187.78 0.0498504 159.096 0H120.039Z" fill="url(#paint1_radial_258_2)"/>
<path d="M120.006 31C95.8353 31 92.8019 31.1057 83.3084 31.5377C73.8335 31.9716 67.3662 33.4716 61.7072 35.6725C55.8535 37.9457 50.888 40.9865 45.941 45.9353C40.9904 50.8822 37.9495 55.8477 35.6688 61.6994C33.4624 67.3602 31.9605 73.8294 31.534 83.3005C31.1113 92.7938 31 95.8291 31 120C31 144.171 31.1075 147.195 31.5377 156.688C31.9734 166.163 33.4735 172.631 35.6725 178.289C37.9476 184.143 40.9885 189.109 45.9373 194.055C50.8824 199.006 55.8479 202.054 61.6979 204.328C67.3606 206.528 73.8298 208.028 83.3029 208.462C92.7963 208.894 95.8279 209 119.997 209C144.17 209 147.194 208.894 156.688 208.462C166.163 208.028 172.638 206.528 178.3 204.328C184.152 202.054 189.11 199.006 194.055 194.055C199.006 189.109 202.047 184.143 204.327 178.291C206.515 172.631 208.017 166.161 208.462 156.69C208.889 147.197 209 144.171 209 120C209 95.8291 208.889 92.7957 208.462 83.3023C208.017 73.8275 206.515 67.3602 204.327 61.7013C202.047 55.8477 199.006 50.8822 194.055 45.9353C189.105 40.9847 184.154 37.9439 178.295 35.6725C172.621 33.4716 166.15 31.9716 156.675 31.5377C147.181 31.1057 144.159 31 119.981 31H120.006ZM112.022 47.0385C114.392 47.0348 117.036 47.0385 120.006 47.0385C143.77 47.0385 146.586 47.1238 155.97 47.5503C164.648 47.9471 169.357 49.397 172.495 50.6152C176.648 52.2284 179.609 54.1567 182.722 57.2717C185.838 60.3867 187.766 63.3534 189.383 67.5067C190.601 70.6402 192.053 75.3498 192.448 84.0273C192.874 93.4094 192.967 96.2277 192.967 119.98C192.967 143.731 192.874 146.55 192.448 155.932C192.051 164.609 190.601 169.319 189.383 172.453C187.77 176.606 185.838 179.563 182.722 182.676C179.607 185.791 176.65 187.72 172.495 189.333C169.361 190.557 164.648 192.003 155.97 192.4C146.588 192.826 143.77 192.919 120.006 192.919C96.2414 192.919 93.4249 192.826 84.0427 192.4C75.3651 191.999 70.6555 190.549 67.5163 189.331C63.363 187.718 60.3963 185.79 57.2812 182.675C54.1662 179.56 52.2378 176.6 50.621 172.445C49.4028 169.312 47.951 164.602 47.556 155.924C47.1296 146.542 47.0443 143.724 47.0443 119.957C47.0443 96.1906 47.1296 93.3871 47.556 84.0051C47.9528 75.3276 49.4028 70.618 50.621 67.4807C52.2341 63.3274 54.1662 60.3607 57.2812 57.2457C60.3963 54.1307 63.363 52.2024 67.5163 50.5856C70.6536 49.3618 75.3651 47.9156 84.0427 47.5169C92.253 47.1461 95.4348 47.0348 112.022 47.0163V47.0385ZM167.514 61.8162C165.402 61.8162 163.337 62.4427 161.58 63.6164C159.824 64.7901 158.455 66.4583 157.647 68.41C156.839 70.3618 156.627 72.5094 157.04 74.5812C157.452 76.653 158.47 78.556 159.964 80.0495C161.458 81.5429 163.361 82.5598 165.433 82.9715C167.505 83.3832 169.653 83.1711 171.604 82.3622C173.556 81.5533 175.223 80.1838 176.396 78.427C177.57 76.6702 178.195 74.605 178.195 72.4925C178.195 66.5963 173.411 61.8125 167.514 61.8125V61.8162ZM120.006 74.2948C94.7655 74.2948 74.3008 94.7592 74.3008 120C74.3008 145.241 94.7655 165.696 120.006 165.696C145.248 165.696 165.707 145.241 165.707 120C165.707 94.7592 145.246 74.2948 120.005 74.2948H120.006ZM120.006 90.3333C136.39 90.3333 149.673 103.615 149.673 120C149.673 136.383 136.39 149.667 120.006 149.667C103.621 149.667 90.3395 136.383 90.3395 120C90.3395 103.615 103.621 90.3333 120.006 90.3333V90.3333Z" fill="white"/>
<defs>
<radialGradient id="paint0_radial_258_2" cx="0" cy="0" r="1" gradientUnits="userSpaceOnUse" gradientTransform="translate(63.7503 258.485) rotate(-90) scale(237.858 221.226)">
<stop stop-color="#FFDD55"/>
<stop offset="0.1" stop-color="#FFDD55"/>
<stop offset="0.5" stop-color="#FF543E"/>
<stop offset="1" stop-color="#C837AB"/>
</radialGradient>
<radialGradient id="paint1_radial_258_2" cx="0" cy="0" r="1" gradientUnits="userSpaceOnUse" gradientTransform="translate(-40.2013 17.2892) rotate(78.6806) scale(106.323 438.27)">
<stop stop-color="#3771C8"/>
<stop offset="0.128" stop-color="#3771C8"/>
<stop offset="1" stop-color="#6600FF" stop-opacity="0"/>
</radialGradient>
</defs>
</svg>
