<svg width="240" height="240" viewBox="0 0 240 240" fill="none" xmlns="http://www.w3.org/2000/svg">
<g clip-path="url(#clip0_259_30)">
<path d="M235.36 62.2789C232.601 52.0044 224.519 43.9034 214.27 41.1372C195.545 36 120.644 36 120.644 36C120.644 36 45.7433 36 27.0181 40.9396C16.9657 43.7058 8.68717 52.0044 5.92768 62.2789C1 81.0495 1 119.974 1 119.974C1 119.974 1 159.096 5.92768 177.669C8.68717 187.943 16.7686 196.044 27.0181 198.81C45.9404 203.948 120.644 203.948 120.644 203.948C120.644 203.948 195.545 203.948 214.27 199.008C224.519 196.242 232.601 188.141 235.36 177.866C240.288 159.096 240.288 120.171 240.288 120.171C240.288 120.171 240.485 81.0495 235.36 62.2789V62.2789Z" fill="#FF0000"/>
<path d="M96.794 84.0132V155.934L159.08 119.974L96.794 84.0132Z" fill="white"/>
</g>
<defs>
<clipPath id="clip0_259_30">
<rect width="240" height="240" fill="white"/>
</clipPath>
</defs>
</svg>
