<svg width="31" height="33" viewBox="0 0 31 33" fill="none" xmlns="http://www.w3.org/2000/svg">
<path d="M6.49996 26.4073C9.99279 26.4073 12.8333 23.5668 12.8333 20.0739V4.01102L27.0833 9.19169V20.9559C26.1252 20.385 25.0319 20.0805 23.9166 20.0739C20.4238 20.0739 17.5833 22.9144 17.5833 26.4073C17.5833 29.9001 20.4238 32.7406 23.9166 32.7406C27.4095 32.7406 30.25 29.9001 30.25 26.4073V8.08335C30.2502 7.7585 30.1503 7.44147 29.9639 7.17543C29.7774 6.90939 29.5135 6.70727 29.2081 6.5966L11.7915 0.263269C11.5524 0.175865 11.2957 0.147459 11.0433 0.180467C10.7909 0.213474 10.5501 0.306919 10.3416 0.452863C10.133 0.598807 9.9627 0.792939 9.8452 1.01877C9.7277 1.2446 9.66644 1.49545 9.66662 1.75002V14.6225C8.7085 14.0517 7.61524 13.7472 6.49996 13.7406C3.00713 13.7406 0.166626 16.5811 0.166626 20.0739C0.166626 23.5668 3.00713 26.4073 6.49996 26.4073Z" fill="#DC4040"/>
</svg>
