<svg width="46" height="46" viewBox="0 0 46 46" fill="none" xmlns="http://www.w3.org/2000/svg">
<path d="M23 0C10.3093 0 0 10.3093 0 23C0 35.6907 10.3093 46 23 46C35.6907 46 46 35.6907 46 23C46 10.3093 35.6907 0 23 0ZM23 2C34.6098 2 44 11.3902 44 23C44 34.6098 34.6098 44 23 44C11.3902 44 2 34.6098 2 23C2 11.3902 11.3902 2 23 2Z" fill="black"/>
<path d="M8 13V32H38V13H8ZM35.9648 14.0432L23 23.4637L10.0351 14.0432H35.9648ZM37.0738 30.9569H8.92619V14.4788L23 24.7051L37.0738 14.4788V30.9569Z" fill="black"/>
<path d="M21.5931 28.3165H20.6552V29.3596H21.5931V28.3165Z" fill="black"/>
<path d="M23.4689 28.3165H22.5311V29.3596H23.4689V28.3165Z" fill="black"/>
<path d="M25.3449 28.3165H24.407V29.3596H25.3449V28.3165Z" fill="black"/>
</svg>
