<svg width="46" height="46" viewBox="0 0 46 46" fill="none" xmlns="http://www.w3.org/2000/svg">
<path d="M23 0C10.3093 0 0 10.3093 0 23C0 35.6907 10.3093 46 23 46C35.6907 46 46 35.6907 46 23C46 10.3093 35.6907 0 23 0ZM23 2C34.6098 2 44 11.3902 44 23C44 34.6098 34.6098 44 23 44C11.3902 44 2 34.6098 2 23C2 11.3902 11.3902 2 23 2Z" fill="black"/>
<path d="M27 11C24.1188 11 21.4 12.4312 19.8 14.75V17.55L20.05 17.725L20.35 16.925C21.4688 14.2844 24.125 12.6 26.925 12.6C30.925 12.6 34.125 15.8 34.125 19.8V21.3999L35.325 20.9249C35.8844 20.6843 36.4406 20.5999 37 20.5999C39.4 20.5999 41.4 22.5999 41.4 24.9999C41.4 27.3999 39.4 29.3999 37 29.3999H19.8V30.9999H37C40.2813 30.9999 43 28.2812 43 24.9999C43 21.7187 40.2813 19 37 19C36.6 19 36.2 19.0687 35.8 19.15C35.4 14.5906 31.6406 11 27 11ZM16.6 15C16.0406 15 15.4813 15.0687 15 15.15V30.9999H16.6V15ZM17.4 15V30.9999H19V15.4C18.5188 15.2406 17.9594 15.0812 17.4 15ZM14.2 15.4C13.6406 15.6406 13.0813 15.8812 12.6 16.2V30.9999H14.2V15.4ZM11.8 16.85C11.1594 17.4093 10.6 18.125 10.2 18.925V30.9999H11.8V16.85ZM8.2 19.8C8.05938 19.8093 7.91875 19.8343 7.8 19.875V30.9249C8.04062 31.0061 8.35938 30.9999 8.6 30.9999H9.4V19.875C9.15938 19.7937 8.84062 19.8 8.6 19.8C8.48125 19.8 8.34062 19.7906 8.2 19.8ZM7 20.0499C6.44062 20.2093 5.88125 20.4499 5.4 20.8499V29.9499C5.88125 30.2686 6.44062 30.5905 7 30.7499V20.0499ZM4.6 21.4749C3.64062 22.5156 3 23.8812 3 25.3999C3 26.9187 3.64062 28.2843 4.6 29.3249V21.4749Z" fill="black"/>
</svg>
