<svg width="46" height="46" viewBox="0 0 46 46" fill="none" xmlns="http://www.w3.org/2000/svg">
<path d="M23 0C10.3098 0 0 10.3263 0 23.0368C0 34.5753 8.49697 44.1242 19.5635 45.7893L20.7641 45.9714V27.8184H15.3306V24.133H20.7641V19.2389C20.7641 16.2252 21.4862 14.2403 22.6815 12.995C23.8768 11.7497 25.6429 11.1216 28.1007 11.1216C30.0659 11.1216 30.8305 11.2409 31.5576 11.3302V14.3469H28.9991C27.5474 14.3469 26.3564 15.1581 25.7382 16.2387C25.12 17.3192 24.9276 18.6094 24.9276 19.9241V24.131H31.3289L30.7592 27.8164H24.9276V46L26.1139 45.8384C37.3377 44.3138 46 34.688 46 23.0368C46 10.3263 35.6902 0 23 0ZM23 2.09426C34.5602 2.09426 43.9091 11.4581 43.9091 23.0368C43.9091 33.2251 36.6283 41.6043 27.0185 43.4906V29.9106H32.552L33.767 22.0367H27.0185V19.9241C27.0185 18.8377 27.2169 17.8643 27.5514 17.2797C27.8859 16.695 28.2083 16.4411 28.9991 16.4411H33.6485V9.43438L32.7419 9.31167C32.1149 9.22668 30.6833 9.02739 28.1007 9.02739C25.2747 9.02739 22.849 9.79844 21.1745 11.5429C19.5001 13.2875 18.6732 15.8851 18.6732 19.2389V22.0388H13.2397V29.9127H18.6732V43.4251C9.21777 41.4189 2.09091 33.1148 2.09091 23.0368C2.09091 11.4581 11.4398 2.09426 23 2.09426Z" fill="black"/>
</svg>
