<svg width="46" height="46" viewBox="0 0 46 46" fill="none" xmlns="http://www.w3.org/2000/svg">
<path d="M16.6591 7.5C11.6093 7.5 7.5 11.6093 7.5 16.6591V29.3409C7.5 34.3907 11.6093 38.5 16.6591 38.5H29.3409C34.3907 38.5 38.5 34.3907 38.5 29.3409V16.6591C38.5 11.6093 34.3907 7.5 29.3409 7.5H16.6591ZM16.6591 8.90909H29.3409C33.6291 8.90909 37.0909 12.3709 37.0909 16.6591V29.3409C37.0909 33.6291 33.6291 37.0909 29.3409 37.0909H16.6591C12.3709 37.0909 8.90909 33.6291 8.90909 29.3409V16.6591C8.90909 12.3709 12.3709 8.90909 16.6591 8.90909ZM31.4545 13.1364C31.0808 13.1364 30.7224 13.2848 30.4582 13.5491C30.1939 13.8133 30.0455 14.1717 30.0455 14.5455C30.0455 14.9192 30.1939 15.2776 30.4582 15.5418C30.7224 15.8061 31.0808 15.9545 31.4545 15.9545C31.8283 15.9545 32.1867 15.8061 32.4509 15.5418C32.7152 15.2776 32.8636 14.9192 32.8636 14.5455C32.8636 14.1717 32.7152 13.8133 32.4509 13.5491C32.1867 13.2848 31.8283 13.1364 31.4545 13.1364ZM23 15.25C18.7281 15.25 15.25 18.7281 15.25 23C15.25 27.2719 18.7281 30.75 23 30.75C27.2719 30.75 30.75 27.2719 30.75 23C30.75 18.7281 27.2719 15.25 23 15.25ZM23 16.6591C26.5103 16.6591 29.3409 19.4897 29.3409 23C29.3409 26.5103 26.5103 29.3409 23 29.3409C19.4897 29.3409 16.6591 26.5103 16.6591 23C16.6591 19.4897 19.4897 16.6591 23 16.6591Z" fill="black"/>
<path d="M23 0C10.3093 0 0 10.3093 0 23C0 35.6907 10.3093 46 23 46C35.6907 46 46 35.6907 46 23C46 10.3093 35.6907 0 23 0ZM23 2C34.6098 2 44 11.3902 44 23C44 34.6098 34.6098 44 23 44C11.3902 44 2 34.6098 2 23C2 11.3902 11.3902 2 23 2Z" fill="black"/>
</svg>
