<svg width="46" height="46" viewBox="0 0 46 46" fill="none" xmlns="http://www.w3.org/2000/svg">
<path d="M23 0C10.3093 0 0 10.3093 0 23C0 35.6907 10.3093 46 23 46C35.6907 46 46 35.6907 46 23C46 10.3093 35.6907 0 23 0ZM23 2C34.6098 2 44 11.3902 44 23C44 34.6098 34.6098 44 23 44C11.3902 44 2 34.6098 2 23C2 11.3902 11.3902 2 23 2Z" fill="black"/>
<path d="M35.112 9.00213C34.7576 9.01763 34.4125 9.11594 34.1014 9.24009C33.7934 9.36342 32.0204 10.1175 29.4021 11.233C26.7839 12.3485 23.3804 13.8011 20.0065 15.2415C13.2588 18.1223 6.62806 20.9568 6.62806 20.9568L6.67638 20.9384C6.67638 20.9384 6.27618 21.0717 5.87044 21.3534C5.66756 21.4943 5.4493 21.6761 5.27059 21.9412C5.09189 22.2063 4.96124 22.5821 5.01047 22.9795C5.18341 24.3753 6.63516 24.7713 6.63516 24.7713L6.64085 24.7741L13.1197 26.9837C13.2849 27.5328 15.0848 33.5191 15.4807 34.7868C15.6994 35.4877 15.904 35.892 16.1175 36.1678C16.2243 36.3059 16.3363 36.4127 16.4601 36.4908C16.5092 36.5218 16.561 36.5451 16.6122 36.5659C16.6132 36.5663 16.6139 36.5654 16.615 36.5659C16.6213 36.5686 16.6272 36.5689 16.6335 36.5715L16.6164 36.5673C16.6283 36.5721 16.64 36.5801 16.652 36.5843C16.6751 36.5923 16.6892 36.5921 16.7188 36.5984C17.4608 36.8566 18.0748 36.3775 18.0748 36.3775L18.1004 36.3576L22.0804 32.6792L28.5393 37.6976L28.6204 37.7344C29.7509 38.2346 30.7733 37.9556 31.3395 37.4965C31.9058 37.0374 32.1284 36.4455 32.1284 36.4455L32.1526 36.3831L36.8987 11.733C37.0202 11.1815 37.0374 10.7048 36.9229 10.2741C36.8084 9.84334 36.5301 9.46889 36.1809 9.26134C35.8317 9.05379 35.4665 8.98664 35.112 9.00213ZM35.1504 10.4766C35.2943 10.47 35.401 10.4864 35.4347 10.5064C35.4683 10.5264 35.4834 10.5237 35.5157 10.6452C35.548 10.7666 35.5655 11.0225 35.4773 11.4228L35.4745 11.4313L30.7553 35.9384C30.7442 35.9631 30.6458 36.1898 30.4213 36.3718C30.1923 36.5575 29.9375 36.7025 29.2614 36.42L22.1984 30.9313L21.9994 30.7755L21.9951 30.7797L19.8829 29.2004L31.7532 15.284C31.8444 15.1773 31.9026 15.0466 31.9209 14.9077C31.9391 14.7688 31.9166 14.6275 31.856 14.5011C31.7954 14.3746 31.6994 14.2683 31.5795 14.1951C31.4595 14.1219 31.3209 14.0849 31.1803 14.0885C31.043 14.0921 30.9094 14.1343 30.7951 14.2103L13.6186 25.6211L7.12982 23.4072C7.12982 23.4072 6.48548 23.0499 6.45464 22.801C6.45293 22.7872 6.44532 22.7997 6.47881 22.75C6.51229 22.7003 6.59645 22.6165 6.70197 22.5432C6.91301 22.3967 7.15398 22.3081 7.15398 22.3081L7.17815 22.2996L7.20231 22.2897C7.20231 22.2897 13.8334 19.455 20.5808 16.5744C23.9544 15.134 27.3574 13.6825 29.975 12.5673C32.5919 11.4524 34.4828 10.6498 34.6429 10.5857C34.8252 10.513 35.0064 10.4833 35.1504 10.4766ZM27.2785 18.2897L18.2766 28.8435L18.2724 28.8477C18.2583 28.8646 18.245 28.8821 18.2326 28.9001C18.2183 28.9198 18.205 28.9401 18.1928 28.9611C18.1422 29.0466 18.1098 29.1416 18.0975 29.2401C18.0975 29.242 18.0975 29.2439 18.0975 29.2458L16.9249 34.5007C16.9054 34.4439 16.8917 34.4232 16.8709 34.3562V34.3548C16.4984 33.1622 14.8002 27.5166 14.5653 26.7358L27.2785 18.2897ZM19.293 30.5729L20.9105 31.7826L18.5339 33.978L19.293 30.5729Z" fill="black"/>
</svg>
