<svg width="46" height="46" viewBox="0 0 46 46" fill="none" xmlns="http://www.w3.org/2000/svg">
<path d="M23 0C10.3093 0 0 10.3093 0 23C0 35.6907 10.3093 46 23 46C35.6907 46 46 35.6907 46 23C46 10.3093 35.6907 0 23 0ZM23 2C34.6098 2 44 11.3902 44 23C44 34.6098 34.6098 44 23 44C11.3902 44 2 34.6098 2 23C2 11.3902 11.3902 2 23 2ZM32.0527 10C31.9787 9.99624 31.9028 10.0021 31.8262 10.0156L18.1309 12.6094C17.4769 12.7244 17 13.2911 17 13.9551V27.2227C17 27.6797 16.6891 28.0784 16.2461 28.1914L12.8008 29.0703L12.5098 29.1406C11.1998 29.5306 10.2093 30.6608 10.0293 32.0508C9.9863 32.3748 9.98906 32.6984 10.0391 33.0234C10.3121 34.7864 11.9806 36 13.7656 36H13.8652C16.7002 36 19 33.7002 19 30.8652V20.3281C19 19.6521 19.4854 19.074 20.1504 18.957L29.8262 17.0742C30.4392 16.9662 31 17.4366 31 18.0586V24.2227C31 24.6797 30.6891 25.0784 30.2461 25.1914L26.8008 26.0703L26.5098 26.1406C25.1998 26.5306 24.2093 27.6608 24.0293 29.0508C23.9863 29.3748 23.9891 29.6984 24.0391 30.0234C24.3121 31.7864 25.9806 33 27.7656 33H27.8652C30.7002 33 33 30.7002 33 27.8652V11C33 10.4557 32.5708 10.0263 32.0527 10Z" fill="black"/>
</svg>
