<svg width="47" height="47" viewBox="0 0 47 47" fill="none" xmlns="http://www.w3.org/2000/svg">
<path d="M23.0098 0C10.2766 0 0 10.2766 0 23.0098C0 35.7429 10.2766 46.0195 23.0098 46.0195C35.7429 46.0195 46.0195 35.7429 46.0195 23.0098C46.0195 10.2766 35.7429 0 23.0098 0ZM23.0098 2.01953C34.6606 2.01953 44 11.3589 44 23.0098C44 34.6606 34.6606 44 23.0098 44C11.3589 44 2.01953 34.6606 2.01953 23.0098C2.01953 11.3589 11.3589 2.01953 23.0098 2.01953ZM19.9434 12.0098C14.0106 12.0098 9.54614 13.0372 9.32812 13.0879H9.32617V13.0898C7.72529 13.4636 6.71572 15.0891 7.08789 16.6895C7.46005 18.2912 9.08529 19.2983 10.6855 18.9316H10.6934L10.6992 18.9297C10.5856 18.9574 10.749 18.9178 10.8691 18.8926C10.9892 18.8673 11.1665 18.8324 11.3965 18.7891C11.8564 18.7024 12.524 18.5861 13.3555 18.4707C15.0185 18.2399 17.3355 18.0098 19.9434 18.0098H20.0059C24.3188 18.0157 30.5162 18.6776 35.4902 21.5977H35.4922V21.5996C35.9646 21.875 36.4913 22.0098 37.0078 22.0098C38.0369 22.0098 39.0425 21.4724 39.5977 20.5273C40.4302 19.1095 39.9477 17.2554 38.5293 16.4219C32.2861 12.7565 25.0187 12.0169 20.0137 12.0098H19.9434ZM19.9434 14.0098H20.0137C24.8186 14.0168 31.7614 14.7682 37.5156 18.1465C38.0032 18.433 38.1585 19.0294 37.873 19.5156C37.6822 19.8406 37.3508 20.0098 37.0078 20.0098C36.8377 20.0098 36.6682 19.9679 36.5039 19.873L36.5 19.8711C31.0229 16.6572 24.5139 16.0159 20.0078 16.0098H19.9434C17.2182 16.0098 14.816 16.2496 13.082 16.4902C12.215 16.6106 11.5138 16.7302 11.0254 16.8223C10.7812 16.8683 10.5902 16.9076 10.457 16.9355C10.3319 16.9618 10.3408 16.958 10.2402 16.9824C9.68449 17.1098 9.16299 16.7865 9.03516 16.2363C8.90746 15.6873 9.23122 15.166 9.7793 15.0371C9.93128 15.0018 14.2421 14.0098 19.9434 14.0098ZM20.002 20.0117C17.4956 20.0327 15.3317 20.2669 13.752 20.5078C12.1722 20.7487 11.2748 20.9666 10.9863 21.0488C9.55506 21.4547 8.70684 22.9716 9.11328 24.4043C9.52102 25.8385 11.0376 26.6825 12.4688 26.2754L12.4746 26.2734H12.4785C12.5045 26.2673 12.545 26.2579 12.5977 26.2461C12.703 26.2225 12.8585 26.1906 13.0586 26.1504C13.4588 26.07 14.0358 25.9613 14.75 25.8535C16.1784 25.6379 18.1522 25.4198 20.332 25.4004C24.1953 25.3663 28.5775 25.9341 32.8535 28.5977C33.2994 28.8775 33.8025 29.0117 34.291 29.0117C35.1968 29.0117 36.0875 28.5524 36.5996 27.7324C37.3878 26.4685 36.9951 24.7753 35.7305 23.9883C30.3458 20.6336 24.5704 19.9739 20.002 20.0117ZM20.0195 22.0098C24.3811 21.9736 29.7345 22.6083 34.6738 25.6855C35.0192 25.9005 35.1182 26.3277 34.9023 26.6738C34.7624 26.8978 34.5313 27.0117 34.291 27.0117C34.1595 27.0117 34.0341 26.9784 33.916 26.9043L33.9141 26.9023C29.2228 23.9792 24.3905 23.3645 20.3145 23.4004C18.0123 23.4209 15.9506 23.6506 14.4512 23.877C13.7015 23.9901 13.0931 24.1032 12.6641 24.1895C12.4496 24.2326 12.28 24.2681 12.1602 24.2949C12.1002 24.3083 12.053 24.3197 12.0176 24.3281C11.9821 24.3365 12.038 24.3183 11.9121 24.3555L11.9219 24.3516C11.539 24.4605 11.1474 24.2453 11.0371 23.8574C10.9257 23.4647 11.1395 23.0835 11.5312 22.9727H11.5332C11.5217 22.976 12.5505 22.7135 14.0527 22.4844C15.5549 22.2553 17.6289 22.0298 20.0195 22.0098ZM20.5098 27.0117C16.1509 27.0127 12.9241 28.0722 12.7188 28.1406C11.4198 28.5729 10.7059 30.0043 11.1387 31.3027C11.5717 32.6017 13.0031 33.3225 14.3047 32.8809L14.2891 32.8867C14.3892 32.8545 14.4486 32.8336 14.752 32.752C15.0553 32.6703 15.5016 32.561 16.0586 32.4512C17.1726 32.2315 18.7346 32.0122 20.5098 32.0117C24.8467 32.0108 27.8088 33.0493 30.123 34.5918V34.5898C30.5468 34.8729 31.033 35.0117 31.5078 35.0117C32.3145 35.0117 33.1126 34.6132 33.5898 33.8965C34.3484 32.7578 34.0346 31.1915 32.8965 30.4316C29.2513 28.0019 25.1499 27.0097 20.5098 27.0117ZM20.5098 29.0117C24.8697 29.0098 28.5043 29.9075 31.7871 32.0957C32.0254 32.2562 32.0848 32.5504 31.9258 32.7891C31.825 32.9403 31.6712 33.0117 31.5078 33.0117C31.4106 33.0117 31.3206 32.9867 31.2324 32.9277V32.9258C28.5987 31.1704 25.1728 30.0107 20.5098 30.0117C18.5709 30.0122 16.8853 30.249 15.6719 30.4883C15.0652 30.6079 14.575 30.7282 14.2324 30.8203C13.8899 30.9125 13.5915 31.0101 13.6777 30.9824L13.6699 30.9844L13.6621 30.9863C13.3957 31.0767 13.1262 30.943 13.0352 30.6699C12.9441 30.3969 13.0795 30.1274 13.3516 30.0371C13.4103 30.0175 16.4787 29.0127 20.5098 29.0117Z" fill="black"/>
</svg>
