<svg width="46" height="46" viewBox="0 0 46 46" fill="none" xmlns="http://www.w3.org/2000/svg">
<path d="M23 0C10.3093 0 0 10.3093 0 23C0 35.6907 10.3093 46 23 46C35.6907 46 46 35.6907 46 23C46 10.3093 35.6907 0 23 0ZM23 2C34.6098 2 44 11.3902 44 23C44 34.6098 34.6098 44 23 44C11.3902 44 2 34.6098 2 23C2 11.3902 11.3902 2 23 2Z" fill="black"/>
<path d="M22.8776 10C17.3633 10 12.185 10.4219 9.42781 11.0118C7.59077 11.4337 6.00172 12.6993 5.6689 14.6406C5.33608 16.6643 5 19.7031 5 23.5C5 27.2969 5.33282 30.25 5.75048 32.3594C6.08656 34.215 7.67235 35.5663 9.50938 35.9882C12.4362 36.5781 17.4448 37 22.9592 37C28.4736 37 33.4822 36.5781 36.4058 35.9882C38.2461 35.5663 39.8319 34.3007 40.1647 32.3594C40.5008 30.25 40.9184 27.2145 41 23.4176C41 19.6207 40.5823 16.5819 40.1647 14.4725C39.8319 12.6169 38.2461 11.2656 36.4058 10.8438C33.4822 10.4219 28.3887 10 22.8776 10ZM22.8776 11.6875C28.8912 11.6875 33.7334 12.1918 36.073 12.6136C37.3259 12.9531 38.3277 13.7969 38.4941 14.8944C38.9966 17.5938 39.3294 20.4645 39.3294 23.4176C39.2478 27.0431 38.8301 29.9962 38.4941 32.1056C38.2461 33.7074 36.5755 34.215 36.073 34.3864C33.0645 34.9763 28.0527 35.3949 23.0408 35.3949C18.0289 35.3949 12.9355 35.0587 10.0119 34.3864C8.75891 34.0469 7.75718 33.2031 7.59077 32.1056C6.92187 29.7424 6.67062 26.6212 6.67062 23.5C6.67062 19.6174 7.00671 16.75 7.33953 14.9801C7.59077 13.375 9.34297 12.8674 9.76063 12.6993C12.5178 12.1094 17.6145 11.6875 22.8776 11.6875ZM18.365 16.75V30.25L30.0594 23.5L18.365 16.75ZM20.0356 19.6207L26.7181 23.5L20.0356 27.3793V19.6207Z" fill="black"/>
</svg>
