<svg width="46" height="46" viewBox="0 0 46 46" fill="none" xmlns="http://www.w3.org/2000/svg">
<path d="M23 0C10.2723 0 0 10.2723 0 23C0 35.7277 10.2723 46 23 46C35.7277 46 46 35.7277 46 23C46 10.2723 35.7277 0 23 0ZM23 2.01867C34.6459 2.01867 43.9813 11.3541 43.9813 23C43.9813 34.6459 34.6459 43.9813 23 43.9813C11.3541 43.9813 2.01867 34.6459 2.01867 23C2.01867 11.3541 11.3541 2.01867 23 2.01867ZM19.9349 12.0047C14.0047 12.0047 9.54209 13.0317 9.32417 13.0823H9.32221V13.0843C7.72201 13.4579 6.71287 15.0827 7.08488 16.6824C7.45689 18.2835 9.08144 19.2901 10.681 18.9236H10.6888L10.6947 18.9217C10.5811 18.9494 10.7445 18.9098 10.8645 18.8846C10.9846 18.8593 11.1618 18.8244 11.3916 18.7811C11.8513 18.6945 12.5187 18.5782 13.3498 18.4629C15.0121 18.2321 17.3281 18.0021 19.9349 18.0021H19.9974C24.3084 18.008 30.5032 18.6696 35.4752 21.5885H35.4771V21.5904C35.9494 21.8658 36.4758 22.0004 36.9921 22.0004C38.0207 22.0004 39.026 21.4633 39.5809 20.5186C40.413 19.1014 39.9308 17.248 38.5129 16.4149C32.2724 12.7511 25.0081 12.0118 20.0052 12.0047H19.9349ZM19.9349 14.0038H20.0052C24.8081 14.0108 31.748 14.762 37.4997 18.1388C37.9871 18.4252 38.1423 19.0213 37.857 19.5073C37.6662 19.8322 37.3349 20.0013 36.9921 20.0013C36.8221 20.0013 36.6526 19.9594 36.4884 19.8646L36.4845 19.8627C31.0097 16.6501 24.5035 16.0091 19.9993 16.003H19.9349C17.2109 16.003 14.8097 16.2427 13.0765 16.4832C12.2098 16.6035 11.5089 16.7231 11.0207 16.8151C10.7766 16.8611 10.5857 16.9004 10.4526 16.9284C10.3275 16.9546 10.3364 16.9508 10.2359 16.9752C9.68038 17.1025 9.1591 16.7794 9.03132 16.2294C8.90368 15.6806 9.2273 15.1596 9.77515 15.0307C9.92707 14.9954 14.2361 14.0038 19.9349 14.0038ZM19.9935 20.0032C17.4882 20.0242 15.3252 20.2583 13.7461 20.4991C12.167 20.7399 11.27 20.9577 10.9817 21.0399C9.55101 21.4456 8.70315 22.9618 9.10941 24.3939C9.51698 25.8275 11.0329 26.6712 12.4635 26.2642L12.4693 26.2623H12.4732C12.4991 26.2562 12.5397 26.2467 12.5923 26.235C12.6976 26.2114 12.853 26.1795 13.0531 26.1393C13.4531 26.0589 14.0299 25.9503 14.7437 25.8425C16.1715 25.627 18.1445 25.4091 20.3234 25.3896C24.185 25.3556 28.5654 25.923 32.8396 28.5855C33.2853 28.8653 33.7882 28.9994 34.2765 28.9994C35.1818 28.9994 36.0722 28.5403 36.5841 27.7207C37.3719 26.4573 36.9794 24.7648 35.7153 23.9781C30.333 20.6248 24.56 19.9654 19.9935 20.0032ZM20.011 22.0004C24.3707 21.9643 29.7219 22.5987 34.6591 25.6746C35.0043 25.8895 35.1033 26.3166 34.8875 26.6625C34.7477 26.8864 34.5166 27.0003 34.2765 27.0003C34.145 27.0003 34.0197 26.967 33.9016 26.8929L33.8997 26.8909C29.2104 23.969 24.3802 23.3545 20.3058 23.3905C18.0046 23.411 15.9438 23.6406 14.445 23.8668C13.6957 23.98 13.0875 24.093 12.6587 24.1792C12.4443 24.2223 12.2748 24.2578 12.155 24.2846C12.0951 24.298 12.0479 24.3094 12.0125 24.3178C11.977 24.3262 12.0329 24.308 11.9071 24.3451L11.9168 24.3412C11.5341 24.4501 11.1426 24.235 11.0324 23.8473C10.9211 23.4547 11.1347 23.0737 11.5264 22.9629H11.5283C11.5168 22.9662 12.5452 22.7038 14.0468 22.4748C15.5483 22.2459 17.6214 22.0204 20.011 22.0004ZM20.5011 27.0003C16.144 27.0013 12.9186 28.0603 12.7134 28.1287C11.4149 28.5608 10.7013 29.9915 11.1339 31.2894C11.5668 32.5879 12.9976 33.3083 14.2986 32.8669L14.283 32.8728C14.3831 32.8406 14.4424 32.8196 14.7457 32.7381C15.049 32.6565 15.495 32.5472 16.0518 32.4374C17.1654 32.2178 18.7267 31.9986 20.5011 31.9981C24.8362 31.9972 27.797 33.0352 30.1103 34.5771V34.5752C30.5339 34.8581 31.0198 34.9969 31.4944 34.9969C32.3007 34.9969 33.0985 34.5985 33.5756 33.8821C34.3338 32.7439 34.0201 31.1782 32.8825 30.4187C29.2389 27.99 25.1392 26.9982 20.5011 27.0003ZM20.5011 28.9994C24.8591 28.9975 28.4922 29.8948 31.7736 32.0821C32.0118 32.2425 32.0712 32.5366 31.9122 32.7751C31.8115 32.9264 31.6577 32.9977 31.4944 32.9977C31.3973 32.9977 31.3074 32.9727 31.2192 32.9138V32.9118C28.5865 31.1571 25.1622 29.9979 20.5011 29.999C18.563 29.9995 16.8782 30.2361 15.6652 30.4753C15.0588 30.5949 14.5688 30.7151 14.2264 30.8072C13.884 30.8993 13.5858 30.997 13.6719 30.9693L13.6641 30.9712L13.6563 30.9732C13.39 31.0635 13.1206 30.9298 13.0296 30.6569C12.9387 30.384 13.074 30.1147 13.3459 30.0244C13.4046 30.0048 16.4717 29.0004 20.5011 28.9994Z" fill="black"/>
</svg>
