<svg width="46" height="46" viewBox="0 0 46 46" fill="none" xmlns="http://www.w3.org/2000/svg">
<path d="M23 0C10.3093 0 0 10.3093 0 23C0 35.6907 10.3093 46 23 46C35.6907 46 46 35.6907 46 23C46 10.3093 35.6907 0 23 0ZM23 2C34.6098 2 44 11.3902 44 23C44 34.6098 34.6098 44 23 44C11.3902 44 2 34.6098 2 23C2 11.3902 11.3902 2 23 2Z" fill="black"/>
<path d="M11.8226 8.71393L10.5785 9.96777C10.5684 9.97797 10.5684 9.99443 10.5786 10.0046V10.0046C10.5879 10.0139 10.5888 10.0287 10.5807 10.0391C10.1648 10.5757 9.81498 11.1946 9.55539 11.8601C9.31291 12.4996 9.16032 13.1123 9.09118 13.723C8.50104 18.6377 10.741 23.1301 16.8197 29.2224C25.2246 37.6453 31.9984 37.0089 32.289 36.9777C32.926 36.9012 33.5357 36.7493 34.156 36.5078C34.8153 36.2504 35.4318 35.8996 35.969 35.4804C35.9771 35.4741 35.9885 35.4746 35.996 35.4815V35.4815C36.0042 35.4891 36.0169 35.489 36.0248 35.4812L37.2885 34.239C38.2126 33.3124 38.2402 31.8327 37.3498 30.9389L32.8713 26.4484C31.9799 25.5579 30.5027 25.5852 29.5788 26.5108L27.6833 28.4112C27.4697 28.6253 27.1397 28.6734 26.877 28.5236V28.5236C25.4535 27.7322 23.5037 26.6476 21.4503 24.5891C19.3915 22.5265 18.3094 20.5685 17.5183 19.1388V19.1388C17.376 18.881 17.4197 18.5595 17.6279 18.3511L18.79 17.1878L19.5333 16.4423C20.4573 15.5131 20.4848 14.0346 19.5946 13.1406L15.1146 8.65165C14.2242 7.75918 12.7476 7.78673 11.8226 8.71393ZM14.1209 9.64815L18.6 14.1367C18.9423 14.4808 18.9147 15.0693 18.5387 15.4472L15.9022 18.0876C15.6743 18.3158 15.6295 18.6692 15.7933 18.9471V18.9471C15.9484 19.2092 16.1115 19.503 16.2876 19.823C17.1193 21.3256 18.2586 23.3847 20.4555 25.5857C22.6484 27.7837 24.6976 28.9241 26.1948 29.7563C26.5171 29.9353 26.8132 30.0998 27.0782 30.2574V30.2574C27.3543 30.4229 27.7076 30.3791 27.9349 30.1512L30.571 27.5076C30.948 27.1307 31.5342 27.1036 31.8775 27.4473L36.3551 31.9342C36.6978 32.2799 36.6703 32.8649 36.2949 33.2432L35.7322 33.8062L35.5079 34.022C35.153 34.3641 34.5407 34.8444 33.6472 35.1956C33.1398 35.3912 32.642 35.5175 32.1319 35.5779C32.0681 35.5834 25.6984 36.1282 17.8149 28.228C11.1114 21.5084 10.0368 17.6382 10.4874 13.8883C10.5441 13.3912 10.6692 12.8902 10.8658 12.3675C11.2177 11.468 11.6975 10.8552 12.0383 10.5006L12.8162 9.7107C13.1933 9.33173 13.7781 9.3046 14.1209 9.64815Z" fill="#010002"/>
</svg>
