<svg width="46" height="46" viewBox="0 0 46 46" fill="none" xmlns="http://www.w3.org/2000/svg">
<path d="M12.76 9.56C10.9997 9.56 9.56 10.9997 9.56 12.76V33.24C9.56 35.0003 10.9997 36.44 12.76 36.44H33.24C35.0003 36.44 36.44 35.0003 36.44 33.24V12.76C36.44 10.9997 35.0003 9.56 33.24 9.56H12.76ZM12.76 10.84H33.24C34.3098 10.84 35.16 11.6902 35.16 12.76V33.24C35.16 34.3098 34.3098 35.16 33.24 35.16H12.76C11.6902 35.16 10.84 34.3098 10.84 33.24V12.76C10.84 11.6902 11.6902 10.84 12.76 10.84ZM23.6675 13.4C23.498 13.4 23.3354 13.4673 23.2154 13.587C23.0954 13.7068 23.0278 13.8692 23.0275 14.0387C23.0275 14.0387 23.0205 17.1589 23.0137 20.2862C23.0104 21.8499 23.0063 23.4152 23.0037 24.5937C23.0012 25.7723 23 26.518 23 26.58C23 27.7418 21.9449 28.6912 20.7425 28.6912C19.5497 28.6912 18.5975 27.7378 18.5975 26.545C18.5975 25.3522 19.5497 24.4 20.7425 24.4C20.7829 24.4 20.8644 24.4133 21.0037 24.43C21.0937 24.4408 21.1848 24.4324 21.2712 24.4053C21.3576 24.3782 21.4373 24.3331 21.505 24.273C21.5727 24.2129 21.6269 24.1391 21.6639 24.0565C21.701 23.9738 21.7201 23.8843 21.72 23.7937V21.105C21.72 20.9422 21.6579 20.7855 21.5465 20.6668C21.435 20.5482 21.2825 20.4764 21.12 20.4662C21.0203 20.46 20.8948 20.4475 20.7425 20.4475C17.3828 20.4475 14.645 23.1853 14.645 26.545C14.645 29.9047 17.3828 32.6425 20.7425 32.6425C24.1021 32.6425 26.84 29.9047 26.84 26.545V20.7537C27.7709 21.4983 28.9312 21.97 30.2125 21.97C30.3873 21.97 30.5535 21.9596 30.7125 21.945C30.8714 21.9303 31.0191 21.8568 31.1267 21.7389C31.2342 21.621 31.2938 21.4671 31.2937 21.3075V18.3187C31.2938 18.1569 31.2327 18.0011 31.1225 17.8826C31.0123 17.7641 30.8614 17.6917 30.7 17.68C28.6874 17.5356 27.0831 15.9678 26.8737 13.9737C26.8574 13.8164 26.7833 13.6707 26.6658 13.5647C26.5483 13.4588 26.3957 13.4001 26.2375 13.4H23.6675ZM24.3062 14.68H25.7662C26.2314 16.7912 27.8811 18.4012 30.0137 18.805V20.6387C28.6449 20.5692 27.4426 19.8864 26.735 18.81C26.6593 18.6948 26.5485 18.6071 26.419 18.56C26.2894 18.5129 26.1482 18.5088 26.0161 18.5484C25.8841 18.588 25.7684 18.6692 25.6862 18.7798C25.604 18.8904 25.5598 19.0247 25.56 19.1625V26.545C25.56 29.2128 23.4104 31.3625 20.7425 31.3625C18.0747 31.3625 15.925 29.2128 15.925 26.545C15.925 23.9847 17.9223 21.9524 20.44 21.7887V23.1812C18.7033 23.3429 17.3175 24.7678 17.3175 26.545C17.3175 28.4293 18.8582 29.9712 20.7425 29.9712C22.6172 29.9712 24.28 28.4954 24.28 26.58C24.28 26.6113 24.2812 25.7748 24.2837 24.5962C24.2862 23.4177 24.2904 21.8524 24.2937 20.2887C24.2998 17.4811 24.3051 15.2235 24.3062 14.68Z" fill="black"/>
<path d="M23 0C10.3093 0 0 10.3093 0 23C0 35.6907 10.3093 46 23 46C35.6907 46 46 35.6907 46 23C46 10.3093 35.6907 0 23 0ZM23 2C34.6098 2 44 11.3902 44 23C44 34.6098 34.6098 44 23 44C11.3902 44 2 34.6098 2 23C2 11.3902 11.3902 2 23 2Z" fill="black"/>
</svg>
