<svg width="25" height="28" viewBox="0 0 25 28" fill="none" xmlns="http://www.w3.org/2000/svg">
<path d="M10.5 11.6945C11.6152 11.6945 12.7055 11.3638 13.6328 10.7442C14.5601 10.1246 15.2828 9.24392 15.7096 8.21355C16.1364 7.18318 16.2481 6.04938 16.0305 4.95555C15.8129 3.86171 15.2759 2.85696 14.4873 2.06834C13.6987 1.27973 12.6939 0.742678 11.6001 0.5251C10.5062 0.307522 9.37244 0.419191 8.34206 0.845985C7.31169 1.27278 6.43102 1.99553 5.81141 2.92284C5.1918 3.85015 4.86108 4.94037 4.86108 6.05564C4.86108 7.55117 5.45518 8.98544 6.51268 10.0429C7.57017 11.1004 9.00445 11.6945 10.5 11.6945ZM10.5 2.02786C11.2966 2.02786 12.0753 2.26409 12.7377 2.70666C13.4001 3.14924 13.9163 3.7783 14.2212 4.51428C14.526 5.25026 14.6058 6.06011 14.4504 6.84142C14.2949 7.62273 13.9113 8.34041 13.348 8.90371C12.7847 9.467 12.0671 9.85061 11.2858 10.006C10.5044 10.1614 9.69459 10.0817 8.95861 9.77682C8.22263 9.47197 7.59358 8.95572 7.151 8.29335C6.70842 7.63099 6.4722 6.85226 6.4722 6.05564C6.4722 4.98741 6.89655 3.96293 7.6519 3.20757C8.40726 2.45222 9.43174 2.02786 10.5 2.02786V2.02786Z" fill="url(#paint0_linear_1_87)"/>
<path d="M20.5453 17.6314C19.2535 16.266 17.6967 15.1784 15.9702 14.4351C14.2437 13.6918 12.3838 13.3085 10.5041 13.3085C8.62439 13.3085 6.76445 13.6918 5.03795 14.4351C3.31146 15.1784 1.7547 16.266 0.462834 17.6314C0.182752 17.9306 0.0271981 18.3252 0.027834 18.735V22.9722C0.027834 23.3995 0.197575 23.8093 0.499717 24.1115C0.801859 24.4136 1.21165 24.5833 1.63895 24.5833V22.9722H13.466L19.3612 24.5833C19.7885 24.5833 20.1983 24.4136 20.5004 24.1115C20.8025 23.8093 20.9723 23.3995 20.9723 22.9722V18.735C20.9751 18.3263 20.8225 17.9318 20.5453 17.6314ZM19.3612 22.9722H1.63895V18.7269C2.7806 17.5248 4.15493 16.5675 5.67829 15.9134C7.20165 15.2592 8.84219 14.9219 10.5001 14.9219C12.1579 14.9219 13.7985 15.2592 15.3218 15.9134C16.8452 16.5675 18.2195 17.5248 19.3612 18.7269V22.9722Z" fill="url(#paint1_linear_1_87)"/>
<path d="M18.4092 26.0114C21.1393 26.0114 23.3524 23.7982 23.3524 21.0682C23.3524 18.3381 21.1393 16.125 18.4092 16.125C15.6792 16.125 13.4661 18.3381 13.4661 21.0682C13.4661 23.7982 15.6792 26.0114 18.4092 26.0114Z" fill="#0E0E0E" stroke="url(#paint2_linear_1_87)" stroke-width="2"/>
<path d="M16.4319 21.3154L17.9148 22.7983L20.3864 19.8324" fill="#0E0E0E"/>
<path d="M16.4319 21.3154L17.9148 22.7983L20.3864 19.8324" stroke="url(#paint3_linear_1_87)" stroke-width="2" stroke-linecap="round" stroke-linejoin="round"/>
<defs>
<linearGradient id="paint0_linear_1_87" x1="10.5" y1="0.416748" x2="19.6225" y2="6.18958" gradientUnits="userSpaceOnUse">
<stop stop-color="#FF5353"/>
<stop offset="1" stop-color="#E91E1E"/>
</linearGradient>
<linearGradient id="paint1_linear_1_87" x1="10.5001" y1="13.3085" x2="20.4612" y2="25.0181" gradientUnits="userSpaceOnUse">
<stop stop-color="#FF5353"/>
<stop offset="1" stop-color="#E91E1E"/>
</linearGradient>
<linearGradient id="paint2_linear_1_87" x1="18.4092" y1="16.125" x2="26.4062" y2="21.1856" gradientUnits="userSpaceOnUse">
<stop stop-color="#FF5353"/>
<stop offset="1" stop-color="#E91E1E"/>
</linearGradient>
<linearGradient id="paint3_linear_1_87" x1="18.4092" y1="19.8324" x2="21.026" y2="22.0403" gradientUnits="userSpaceOnUse">
<stop stop-color="#FF5353"/>
<stop offset="1" stop-color="#E91E1E"/>
</linearGradient>
</defs>
</svg>
