<svg width="32" height="32" viewBox="0 0 32 32" fill="none" xmlns="http://www.w3.org/2000/svg">
<path d="M16 0.166687C7.25521 0.166687 0.166626 7.25527 0.166626 16C0.166626 24.7448 7.25521 31.8334 16 31.8334C24.7447 31.8334 31.8333 24.7448 31.8333 16C31.8333 7.25527 24.7447 0.166687 16 0.166687ZM14.4166 10.8542V21.1459C14.4166 21.4608 14.2915 21.7628 14.0688 21.9855C13.8461 22.2082 13.5441 22.3334 13.2291 22.3334C12.9142 22.3334 12.6121 22.2082 12.3894 21.9855C12.1667 21.7628 12.0416 21.4608 12.0416 21.1459V10.8542C12.0416 10.5392 12.1667 10.2372 12.3894 10.0145C12.6121 9.7918 12.9142 9.66669 13.2291 9.66669C13.5441 9.66669 13.8461 9.7918 14.0688 10.0145C14.2915 10.2372 14.4166 10.5392 14.4166 10.8542ZM23.9166 10.8542V21.1459C23.9166 21.4608 23.7915 21.7628 23.5688 21.9855C23.3461 22.2082 23.0441 22.3334 22.7291 22.3334C22.4142 22.3334 22.1121 22.2082 21.8894 21.9855C21.6667 21.7628 21.5416 21.4608 21.5416 21.1459V10.8542C21.5416 10.5392 21.6667 10.2372 21.8894 10.0145C22.1121 9.7918 22.4142 9.66669 22.7291 9.66669C23.0441 9.66669 23.3461 9.7918 23.5688 10.0145C23.7915 10.2372 23.9166 10.5392 23.9166 10.8542ZM19.1666 13.2292V18.7709C19.1666 19.0858 19.0415 19.3878 18.8188 19.6105C18.5961 19.8332 18.2941 19.9584 17.9791 19.9584C17.6642 19.9584 17.3621 19.8332 17.1394 19.6105C16.9167 19.3878 16.7916 19.0858 16.7916 18.7709V13.2292C16.7916 12.9142 16.9167 12.6122 17.1394 12.3895C17.3621 12.1668 17.6642 12.0417 17.9791 12.0417C18.2941 12.0417 18.5961 12.1668 18.8188 12.3895C19.0415 12.6122 19.1666 12.9142 19.1666 13.2292ZM9.66663 14.0209V17.9792C9.66663 18.2941 9.54151 18.5962 9.31882 18.8189C9.09612 19.0416 8.79407 19.1667 8.47913 19.1667C8.16418 19.1667 7.86214 19.0416 7.63944 18.8189C7.41674 18.5962 7.29163 18.2941 7.29163 17.9792V14.0209C7.29163 13.7059 7.41674 13.4039 7.63944 13.1812C7.86214 12.9585 8.16418 12.8334 8.47913 12.8334C8.79407 12.8334 9.09612 12.9585 9.31882 13.1812C9.54151 13.4039 9.66663 13.7059 9.66663 14.0209Z" fill="#DC4040"/>
</svg>
